<svg width="24" height="24" viewBox="0 0 24 24" fill="none" xmlns="http://www.w3.org/2000/svg">
<g filter="url(#filter0_d_5946_22)">
<path d="M17.3333 2C17.3333 1.63181 17.0349 1.33334 16.6667 1.33334H14.6667V0H13.3333V1.33334H11.3333V0H10V1.33334H8V0H6.66666V1.33334H4.66666C4.29847 1.33334 4 1.63181 4 2V3.33334H17.3333V2Z" fill="#FFBD54"/>
<path d="M14.6547 7.52991C15.0912 7.39897 15.5444 7.33275 16 7.33331C16.4517 7.33372 16.9008 7.39997 17.3333 7.52997V4H4V12.6667C4 13.0348 4.29847 13.3333 4.66666 13.3333H11.53C10.7903 10.8679 12.1893 8.26963 14.6547 7.52991ZM13.3333 5.33334H14.6667V6.66669H13.3333V5.33334ZM10 5.33334H11.3333V6.66669H10V5.33334ZM8 12H6.66666V10.6667H8V12ZM8 9.33334H6.66666V8H8V9.33334ZM8 6.66666H6.66666V5.33331H8V6.66666ZM10 8H11.3333V9.33334H10V8Z" fill="#FFBD54"/>
<path d="M16 8C13.7909 8 12 9.79087 12 12C12 14.2091 13.7909 16 16 16C18.2091 16 20 14.2092 20 12C19.9974 9.79194 18.2081 8.00256 16 8ZM16.4713 12.4713C16.2923 12.6489 16.0289 12.7113 15.7893 12.6327L13.7893 11.966L14.2113 10.6994L15.82 11.2327L17.5287 9.52406L18.4713 10.4667L16.4713 12.4713Z" fill="#FFBD54"/>
</g>
<defs>
<filter id="filter0_d_5946_22" x="0" y="0" width="24" height="24" filterUnits="userSpaceOnUse" color-interpolation-filters="sRGB">
<feFlood flood-opacity="0" result="BackgroundImageFix"/>
<feColorMatrix in="SourceAlpha" type="matrix" values="0 0 0 0 0 0 0 0 0 0 0 0 0 0 0 0 0 0 127 0" result="hardAlpha"/>
<feOffset dy="4"/>
<feGaussianBlur stdDeviation="2"/>
<feComposite in2="hardAlpha" operator="out"/>
<feColorMatrix type="matrix" values="0 0 0 0 0 0 0 0 0 0 0 0 0 0 0 0 0 0 0.25 0"/>
<feBlend mode="normal" in2="BackgroundImageFix" result="effect1_dropShadow_5946_22"/>
<feBlend mode="normal" in="SourceGraphic" in2="effect1_dropShadow_5946_22" result="shape"/>
</filter>
</defs>
</svg>
